# xmcd CD database file
#
# Track frame offsets:
#	150
#	14308
#	26627
#	38666
#	50324
#	61816
#	75502
#	89321
#	100422
#	114348
#	128590
#	142461
#	153955
#	168000
#	179987
#	193137
#	205463
#	217973
#	231561
#	244760
#
# Disc length: 3454 seconds
#
# Revision: 3
# Processed by: cddbd v1.5.2PL0 Copyright (c) Steve Scherf et al.
# Submitted via: CDex 1.51
#
DISCID=160d7c14
DTITLE=Ella Fitzgerald - Everyone's Wrong But Me  [CD 07-10]
DYEAR=1900
DGENRE=Jazz
TTITLE0=Taking A Chance On Love
TTITLE1=Cabin in The Sky
TTITLE2=I'm The Lonesomest Girl In Town
TTITLE3=Three Litle Words
TTITLE4=Hello Ma! I Do It Again
TTITLE5=Wishful Thinking
TTITLE6=The One I Love Belongs To Somedy Else
TTITLE7=The Muffin Man
TTITLE8=Keep Cool, Fool
TTITLE9=No Nothing
TTITLE10=My Man
TTITLE11=I Can't Belive That You're In Love With Me
TTITLE12=I Must Have That Man
TTITLE13=When My Sugar Walks Down The Street
TTITLE14=I Got It Bad
TTITLE15=Melinda The Mousie
TTITLE16=Can't Help Lovin' Dat Man
TTITLE17=Jim
TTITLE18=This Love Of Mine
TTITLE19=Somebody Nobody Loves
EXTD=
EXTT0=
EXTT1=
EXTT2=
EXTT3=
EXTT4=
EXTT5=
EXTT6=
EXTT7=
EXTT8=
EXTT9=
EXTT10=
EXTT11=
EXTT12=
EXTT13=
EXTT14=
EXTT15=
EXTT16=
EXTT17=
EXTT18=
EXTT19=
PLAYORDER=
